<svg width="198" height="34" viewBox="0 0 198 34" fill="none" xmlns="http://www.w3.org/2000/svg">
<path d="M53.2511 14H50.6842L47.5321 9.1854V14H45.2578V4.5038H47.5321V9.1056L50.6177 4.5038H53.0649L49.8596 9.0524L53.2511 14ZM60.1617 14L59.5765 11.9651H56.2914L55.7062 14H53.2324L56.4643 4.4639H59.3637L62.6355 14H60.1617ZM58.5125 8.1746C58.4682 8.015 58.4061 7.8022 58.3263 7.5362C58.2554 7.26133 58.18 6.98203 58.1002 6.6983C58.0293 6.41457 57.9717 6.17517 57.9273 5.9801C57.8919 6.17517 57.8342 6.419 57.7544 6.7116C57.6835 6.99533 57.6126 7.27463 57.5416 7.5495C57.4707 7.8155 57.4131 8.02387 57.3687 8.1746L56.8101 10.0765H59.0711L58.5125 8.1746ZM71.7464 14H69.1795L66.0274 9.1854V14H63.7531V4.5038H66.0274V9.1056L69.113 4.5038H71.5602L68.3549 9.0524L71.7464 14ZM78.657 14L78.0718 11.9651H74.7867L74.2015 14H71.7277L74.9596 4.4639H77.859L81.1308 14H78.657ZM77.0078 8.1746C76.9635 8.015 76.9014 7.8022 76.8216 7.5362C76.7507 7.26133 76.6753 6.98203 76.5955 6.6983C76.5246 6.41457 76.467 6.17517 76.4226 5.9801C76.3872 6.17517 76.3295 6.419 76.2497 6.7116C76.1788 6.99533 76.1079 7.27463 76.0369 7.5495C75.966 7.8155 75.9084 8.02387 75.864 8.1746L75.3054 10.0765H77.5664L77.0078 8.1746ZM85.6399 10.4356L83.5784 14H81.0381L83.6848 9.8371C83.4277 9.71297 83.175 9.5445 82.9267 9.3317C82.6873 9.11003 82.4878 8.83073 82.3282 8.4938C82.1775 8.148 82.1021 7.7357 82.1021 7.2569C82.1021 6.36137 82.4213 5.67863 83.0597 5.2087C83.6981 4.73877 84.6203 4.5038 85.8261 4.5038H88.9383V14H86.6773V10.4356H85.6399ZM85.8926 6.286C85.538 6.286 85.2498 6.33033 85.0281 6.419C84.8153 6.50767 84.6557 6.63623 84.5493 6.8047C84.4518 6.97317 84.403 7.16823 84.403 7.3899C84.403 7.82437 84.536 8.148 84.802 8.3608C85.0769 8.56473 85.4582 8.6667 85.9458 8.6667H86.6773V6.286H85.8926ZM90.4 11.34V9.5312H93.9644V11.34H90.4ZM98.7959 14H96.5349V6.3791H94.0744V4.5038H101.256V6.3791H98.7959V14ZM111.157 9.2386C111.157 9.97453 111.069 10.644 110.891 11.2469C110.714 11.841 110.439 12.3552 110.067 12.7897C109.694 13.2242 109.22 13.5567 108.644 13.7872C108.067 14.0177 107.385 14.133 106.595 14.133C105.815 14.133 105.137 14.0177 104.561 13.7872C103.984 13.5478 103.51 13.2153 103.137 12.7897C102.765 12.3552 102.486 11.8365 102.3 11.2336C102.122 10.6307 102.034 9.96123 102.034 9.2253C102.034 8.2411 102.193 7.38547 102.512 6.6584C102.84 5.93133 103.341 5.3683 104.015 4.9693C104.698 4.56143 105.562 4.3575 106.609 4.3575C107.664 4.3575 108.524 4.56143 109.189 4.9693C109.863 5.3683 110.359 5.93577 110.679 6.6717C110.998 7.39877 111.157 8.2544 111.157 9.2386ZM104.414 9.2386C104.414 9.85927 104.49 10.3957 104.64 10.8479C104.791 11.2912 105.026 11.6326 105.345 11.872C105.673 12.1114 106.09 12.2311 106.595 12.2311C107.119 12.2311 107.54 12.1114 107.859 11.872C108.178 11.6326 108.409 11.2912 108.551 10.8479C108.701 10.3957 108.777 9.85927 108.777 9.2386C108.777 8.29873 108.608 7.5628 108.271 7.0308C107.943 6.4988 107.389 6.2328 106.609 6.2328C106.094 6.2328 105.673 6.35693 105.345 6.6052C105.026 6.8446 104.791 7.1904 104.64 7.6426C104.49 8.08593 104.414 8.61793 104.414 9.2386ZM124.453 14H121.886L118.734 9.1854V14H116.46V4.5038H118.734V9.1056L121.819 4.5038H124.267L121.061 9.0524L124.453 14ZM134.03 9.2386C134.03 9.97453 133.941 10.644 133.764 11.2469C133.586 11.841 133.312 12.3552 132.939 12.7897C132.567 13.2242 132.092 13.5567 131.516 13.7872C130.94 14.0177 130.257 14.133 129.468 14.133C128.688 14.133 128.009 14.0177 127.433 13.7872C126.857 13.5478 126.382 13.2153 126.01 12.7897C125.637 12.3552 125.358 11.8365 125.172 11.2336C124.995 10.6307 124.906 9.96123 124.906 9.2253C124.906 8.2411 125.066 7.38547 125.385 6.6584C125.713 5.93133 126.214 5.3683 126.888 4.9693C127.57 4.56143 128.435 4.3575 129.481 4.3575C130.536 4.3575 131.396 4.56143 132.061 4.9693C132.735 5.3683 133.232 5.93577 133.551 6.6717C133.87 7.39877 134.03 8.2544 134.03 9.2386ZM127.287 9.2386C127.287 9.85927 127.362 10.3957 127.513 10.8479C127.663 11.2912 127.898 11.6326 128.218 11.872C128.546 12.1114 128.962 12.2311 129.468 12.2311C129.991 12.2311 130.412 12.1114 130.731 11.872C131.051 11.6326 131.281 11.2912 131.423 10.8479C131.574 10.3957 131.649 9.85927 131.649 9.2386C131.649 8.29873 131.481 7.5628 131.144 7.0308C130.816 6.4988 130.261 6.2328 129.481 6.2328C128.967 6.2328 128.546 6.35693 128.218 6.6052C127.898 6.8446 127.663 7.1904 127.513 7.6426C127.362 8.08593 127.287 8.61793 127.287 9.2386ZM139.947 14L137.819 6.8313H137.766C137.783 7.00863 137.801 7.26577 137.819 7.6027C137.837 7.93077 137.854 8.28543 137.872 8.6667C137.89 9.0391 137.899 9.38933 137.899 9.7174V14H135.877V4.5038H138.936L141.051 11.5262H141.104L143.285 4.5038H146.331V14H144.229V9.6642C144.229 9.36273 144.234 9.03023 144.243 8.6667C144.26 8.2943 144.274 7.94407 144.283 7.616C144.3 7.27907 144.314 7.02193 144.323 6.8446H144.269L142.075 14H139.947ZM148.567 14V4.5038H156.201V14H153.927V6.3791H150.841V14H148.567ZM164.25 14L163.665 11.9651H160.38L159.794 14H157.321L160.552 4.4639H163.452L166.724 14H164.25ZM162.601 8.1746C162.556 8.015 162.494 7.8022 162.414 7.5362C162.343 7.26133 162.268 6.98203 162.188 6.6983C162.117 6.41457 162.06 6.17517 162.015 5.9801C161.98 6.17517 161.922 6.419 161.843 6.7116C161.772 6.99533 161.701 7.27463 161.63 7.5495C161.559 7.8155 161.501 8.02387 161.457 8.1746L160.898 10.0765H163.159L162.601 8.1746ZM175.781 14H173.52V10.01H170.116V14H167.841V4.5038H170.116V8.1347H173.52V4.5038H175.781V14ZM178.011 4.5038H180.086V8.9859C180.086 9.18983 180.081 9.41593 180.073 9.6642C180.073 9.91247 180.068 10.1563 180.059 10.3957C180.05 10.6262 180.037 10.839 180.019 11.0341C180.01 11.2203 180.002 11.3666 179.993 11.473H180.033L184.209 4.5038H186.856V14H184.781V9.6509C184.781 9.4381 184.785 9.20313 184.794 8.946C184.803 8.68 184.812 8.42287 184.821 8.1746C184.838 7.91747 184.852 7.68693 184.861 7.483C184.878 7.2702 184.892 7.1106 184.9 7.0042H184.847L180.671 14H178.011V4.5038ZM192.482 10.4356L190.42 14H187.88L190.526 9.8371C190.269 9.71297 190.017 9.5445 189.768 9.3317C189.529 9.11003 189.329 8.83073 189.17 8.4938C189.019 8.148 188.944 7.7357 188.944 7.2569C188.944 6.36137 189.263 5.67863 189.901 5.2087C190.54 4.73877 191.462 4.5038 192.668 4.5038H195.78V14H193.519V10.4356H192.482ZM192.734 6.286C192.38 6.286 192.091 6.33033 191.87 6.419C191.657 6.50767 191.497 6.63623 191.391 6.8047C191.293 6.97317 191.245 7.16823 191.245 7.3899C191.245 7.82437 191.378 8.148 191.644 8.3608C191.919 8.56473 192.3 8.6667 192.787 8.6667H193.519V6.286H192.734Z" fill="#25406B"/>
<path d="M44.6023 27.8001C44.6023 27.0614 44.6854 26.4367 44.8516 25.9258C45.0239 25.4087 45.2917 24.9963 45.6548 24.6885C46.018 24.3808 46.492 24.1715 47.0767 24.0607C47.4276 23.993 47.7784 23.9345 48.1293 23.8853C48.4863 23.836 48.8371 23.7868 49.1818 23.7375L49.3388 24.7532C49.1788 24.7716 49.0033 24.7963 48.8125 24.827C48.6279 24.8517 48.437 24.8763 48.2401 24.9009C48.0493 24.9255 47.8646 24.9532 47.6861 24.984C47.5076 25.0148 47.3476 25.0394 47.206 25.0579C46.9905 25.1009 46.7967 25.1625 46.6243 25.2425C46.4581 25.3164 46.3165 25.4241 46.1996 25.5657C46.0826 25.7011 45.9903 25.8796 45.9226 26.1012C45.861 26.3166 45.821 26.5875 45.8026 26.9137H45.8672C45.9472 26.7967 46.0549 26.6798 46.1904 26.5628C46.3319 26.4459 46.5043 26.3474 46.7074 26.2674C46.9105 26.1812 47.1413 26.1381 47.3999 26.1381C47.8123 26.1381 48.1631 26.2243 48.4524 26.3966C48.7479 26.569 48.9726 26.8214 49.1264 27.1537C49.2803 27.48 49.3573 27.8801 49.3573 28.354C49.3573 28.9142 49.2557 29.3851 49.0526 29.7667C48.8495 30.1422 48.5694 30.4253 48.2124 30.6161C47.8554 30.8008 47.4399 30.8931 46.9659 30.8931C46.6089 30.8931 46.2827 30.8254 45.9872 30.69C45.6979 30.5546 45.4486 30.3576 45.2394 30.0991C45.0301 29.8344 44.87 29.5112 44.7592 29.1296C44.6546 28.7418 44.6023 28.2986 44.6023 27.8001ZM47.0398 29.9421C47.2675 29.9421 47.4645 29.8959 47.6307 29.8036C47.7969 29.7051 47.9262 29.5482 48.0185 29.3327C48.1108 29.1111 48.157 28.8188 48.157 28.4556C48.157 28.0186 48.08 27.6708 47.9262 27.4123C47.7723 27.1537 47.5137 27.0245 47.1506 27.0245C46.9228 27.0245 46.7136 27.0768 46.5227 27.1814C46.3381 27.2861 46.1811 27.4061 46.0519 27.5415C45.9226 27.6708 45.8333 27.7816 45.7841 27.8739C45.7841 28.1386 45.8026 28.394 45.8395 28.6403C45.8826 28.8865 45.9503 29.1081 46.0426 29.305C46.1411 29.502 46.2704 29.659 46.4304 29.7759C46.5966 29.8867 46.7997 29.9421 47.0398 29.9421ZM49.803 25.7965H51.068L52.0651 28.6218C52.1082 28.7449 52.1452 28.8649 52.1759 28.9819C52.2129 29.0927 52.2436 29.2066 52.2683 29.3235C52.2929 29.4405 52.3113 29.5574 52.3237 29.6744H52.3606C52.3852 29.5205 52.4221 29.3512 52.4714 29.1665C52.5268 28.9819 52.5822 28.8003 52.6376 28.6218L53.5978 25.7965H54.8535L52.7207 31.4656C52.5976 31.7918 52.4406 32.0719 52.2498 32.3058C52.0651 32.5397 51.8435 32.7151 51.585 32.832C51.3326 32.9551 51.0464 33.0167 50.7263 33.0167C50.5786 33.0167 50.4463 33.0075 50.3293 32.989C50.2185 32.9767 50.12 32.9613 50.0339 32.9428V32.0195C50.1016 32.0318 50.1816 32.0442 50.2739 32.0565C50.3724 32.0688 50.474 32.0749 50.5786 32.0749C50.7694 32.0749 50.9326 32.0349 51.068 31.9549C51.2095 31.881 51.3265 31.7764 51.4188 31.641C51.5173 31.5056 51.5973 31.3548 51.6589 31.1886L51.8066 30.7823L49.803 25.7965ZM56.6805 28.2432L55.0278 25.7965H56.3481L57.4376 27.4954L58.5271 25.7965H59.8474L58.1762 28.2432L59.9305 30.8008H58.6102L57.4376 28.9819L56.265 30.8008H54.9447L56.6805 28.2432ZM64.0721 25.7965V26.6921H61.9301V30.8008H60.7667V25.7965H64.0721ZM67.0169 25.7042C67.6632 25.7042 68.1526 25.8457 68.4849 26.1289C68.8235 26.4059 68.9928 26.8429 68.9928 27.44V30.8008H68.171L67.9402 30.1083H67.9033C67.7617 30.2868 67.614 30.4376 67.4601 30.5607C67.3123 30.6777 67.14 30.7608 66.943 30.81C66.7522 30.8654 66.5183 30.8931 66.2413 30.8931C65.9459 30.8931 65.6781 30.8377 65.4381 30.7269C65.2041 30.6161 65.0195 30.4468 64.8841 30.2191C64.7487 29.9852 64.6809 29.6928 64.6809 29.342C64.6809 28.8249 64.8687 28.4371 65.2442 28.1786C65.6258 27.9139 66.2013 27.7693 66.9707 27.7447L67.8386 27.717V27.4677C67.8386 27.1476 67.7617 26.9198 67.6078 26.7844C67.4539 26.649 67.2385 26.5813 66.9615 26.5813C66.7091 26.5813 66.466 26.6182 66.2321 26.6921C65.9982 26.766 65.7704 26.8521 65.5488 26.9506L65.1795 26.1381C65.4257 26.0089 65.7058 25.9042 66.0197 25.8242C66.3398 25.7442 66.6722 25.7042 67.0169 25.7042ZM67.2293 28.4556C66.7184 28.4741 66.3644 28.5633 66.1675 28.7234C65.9705 28.8772 65.872 29.0865 65.872 29.3512C65.872 29.5851 65.9428 29.7544 66.0844 29.859C66.2259 29.9637 66.4075 30.016 66.6291 30.016C66.9677 30.016 67.2539 29.9206 67.4878 29.7298C67.7217 29.5328 67.8386 29.2435 67.8386 28.8619V28.4371L67.2293 28.4556ZM74.6793 30.8008H73.5159V26.6921H72.1771C72.1156 27.4492 72.0386 28.0924 71.9463 28.6218C71.854 29.1512 71.7401 29.5851 71.6047 29.9236C71.4693 30.256 71.3 30.4992 71.0969 30.6531C70.8999 30.8069 70.6598 30.8839 70.3767 30.8839C70.2474 30.8839 70.1274 30.8746 70.0166 30.8562C69.9058 30.8377 69.8104 30.8069 69.7304 30.7638V29.8498C69.7858 29.8682 69.8443 29.8867 69.9058 29.9052C69.9674 29.9175 70.032 29.9236 70.0997 29.9236C70.2043 29.9236 70.2998 29.8836 70.3859 29.8036C70.4783 29.7174 70.5614 29.5789 70.6352 29.3881C70.7152 29.1912 70.7891 28.9326 70.8568 28.6126C70.9245 28.2925 70.983 27.9016 71.0322 27.44C71.0876 26.9722 71.1369 26.4243 71.18 25.7965H74.6793V30.8008ZM80.0632 26.6921H78.4197V30.8008H77.2656V26.6921H75.6314V25.7965H80.0632V26.6921ZM82.9406 25.7042C83.39 25.7042 83.7747 25.7965 84.0948 25.9812C84.421 26.1597 84.6734 26.4182 84.8519 26.7567C85.0304 27.0891 85.1196 27.4954 85.1196 27.9755V28.5664H81.8142C81.8265 29.0219 81.9527 29.3758 82.1928 29.6282C82.4328 29.8744 82.7652 29.9975 83.1899 29.9975C83.5162 29.9975 83.8055 29.9667 84.0578 29.9052C84.3164 29.8375 84.581 29.7421 84.8519 29.619V30.5515C84.6057 30.6684 84.3502 30.7546 84.0855 30.81C83.8209 30.8654 83.5039 30.8931 83.1345 30.8931C82.6483 30.8931 82.2143 30.8008 81.8327 30.6161C81.4572 30.4253 81.1617 30.1391 80.9463 29.7575C80.737 29.3758 80.6324 28.9019 80.6324 28.3356C80.6324 27.7631 80.7278 27.283 80.9186 26.8952C81.1156 26.5013 81.3864 26.2058 81.7311 26.0089C82.0758 25.8057 82.479 25.7042 82.9406 25.7042ZM82.9406 26.5628C82.6329 26.5628 82.3805 26.6644 82.1835 26.8675C81.9927 27.0645 81.8788 27.36 81.8419 27.7539H83.9932C83.9932 27.52 83.9532 27.3138 83.8732 27.1353C83.7993 26.9568 83.6854 26.8183 83.5316 26.7198C83.3777 26.6152 83.1807 26.5628 82.9406 26.5628ZM88.9241 25.7042C89.5089 25.7042 89.9798 25.9227 90.3368 26.3597C90.6938 26.7906 90.8723 27.4338 90.8723 28.2894C90.8723 28.8557 90.7892 29.3327 90.623 29.7205C90.4568 30.1083 90.226 30.4007 89.9305 30.5977C89.6351 30.7946 89.2904 30.8931 88.8964 30.8931C88.6564 30.8931 88.444 30.8623 88.2594 30.8008C88.0747 30.7331 87.9177 30.65 87.7885 30.5515C87.6592 30.4468 87.5484 30.3361 87.4561 30.2191H87.3822C87.4068 30.3299 87.4253 30.4561 87.4376 30.5977C87.4499 30.7331 87.4561 30.8623 87.4561 30.9854V33.0167H86.2927V25.7965H87.2345L87.4007 26.4613H87.4561C87.5484 26.3197 87.6592 26.1935 87.7885 26.0827C87.9239 25.9658 88.0839 25.8734 88.2686 25.8057C88.4594 25.738 88.6779 25.7042 88.9241 25.7042ZM88.5917 26.6459C88.3209 26.6459 88.1024 26.7013 87.9362 26.8121C87.77 26.9168 87.65 27.0799 87.5761 27.3015C87.5022 27.5231 87.4622 27.8001 87.4561 28.1324V28.2802C87.4561 28.6372 87.4899 28.9388 87.5576 29.185C87.6315 29.4312 87.7515 29.619 87.9177 29.7482C88.0901 29.8775 88.3209 29.9421 88.6102 29.9421C88.8564 29.9421 89.0565 29.8744 89.2103 29.739C89.3704 29.6036 89.4873 29.4128 89.5612 29.1665C89.6412 28.9142 89.6812 28.6156 89.6812 28.2709C89.6812 27.7539 89.592 27.3538 89.4135 27.0706C89.2411 26.7875 88.9672 26.6459 88.5917 26.6459ZM93.1896 28.1786C93.1896 28.2648 93.1834 28.3756 93.1711 28.511C93.1649 28.6403 93.1588 28.7788 93.1526 28.9265C93.1465 29.0681 93.1372 29.1973 93.1249 29.3143C93.1188 29.4251 93.1126 29.5082 93.1065 29.5636L95.5532 25.7965H96.9566V30.8008H95.8394V28.4464C95.8394 28.3048 95.8425 28.1417 95.8487 27.957C95.861 27.7724 95.8733 27.5969 95.8856 27.4307C95.8979 27.2584 95.9071 27.1291 95.9133 27.043L93.4758 30.8008H92.0724V25.7965H93.1896V28.1786ZM99.047 30.8008H97.7636L99.1394 28.7788C98.9609 28.711 98.7916 28.6187 98.6315 28.5018C98.4715 28.3787 98.3422 28.2217 98.2438 28.0309C98.1453 27.8339 98.096 27.5969 98.096 27.3199C98.096 26.8275 98.2745 26.452 98.6315 26.1935C98.9886 25.9288 99.4533 25.7965 100.026 25.7965H102.325V30.8008H101.161V28.8896H100.229L99.047 30.8008ZM99.2317 27.3292C99.2317 27.5631 99.3209 27.7447 99.4994 27.8739C99.6841 27.997 99.9303 28.0586 100.238 28.0586H101.161V26.6552H100.072C99.7764 26.6552 99.561 26.7198 99.4256 26.8491C99.2963 26.9783 99.2317 27.1384 99.2317 27.3292ZM105.021 29.8313C104.966 30.0468 104.895 30.2807 104.809 30.533C104.723 30.7792 104.631 31.0255 104.532 31.2717C104.434 31.524 104.332 31.7641 104.227 31.9918H103.387C103.449 31.7518 103.507 31.4963 103.563 31.2255C103.618 30.9608 103.67 30.6992 103.72 30.4407C103.769 30.1822 103.809 29.9452 103.84 29.7298H104.957L105.021 29.8313ZM113.258 28.2894C113.258 28.708 113.203 29.0773 113.092 29.3974C112.981 29.7174 112.821 29.9914 112.612 30.2191C112.408 30.4407 112.156 30.61 111.854 30.7269C111.559 30.8377 111.23 30.8931 110.867 30.8931C110.522 30.8931 110.205 30.8377 109.916 30.7269C109.626 30.61 109.374 30.4407 109.158 30.2191C108.949 29.9914 108.786 29.7174 108.669 29.3974C108.552 29.0773 108.494 28.708 108.494 28.2894C108.494 27.7354 108.589 27.2676 108.78 26.886C108.971 26.4982 109.245 26.2058 109.602 26.0089C109.965 25.8057 110.393 25.7042 110.885 25.7042C111.353 25.7042 111.762 25.8057 112.113 26.0089C112.47 26.2058 112.75 26.4982 112.953 26.886C113.156 27.2676 113.258 27.7354 113.258 28.2894ZM109.685 28.2894C109.685 28.6403 109.725 28.9419 109.805 29.1942C109.891 29.4405 110.02 29.6282 110.193 29.7575C110.371 29.8867 110.599 29.9513 110.876 29.9513C111.159 29.9513 111.387 29.8867 111.559 29.7575C111.738 29.6282 111.867 29.4405 111.947 29.1942C112.027 28.9419 112.067 28.6403 112.067 28.2894C112.067 27.9324 112.024 27.6339 111.938 27.3938C111.858 27.1476 111.728 26.9629 111.55 26.8398C111.377 26.7106 111.153 26.6459 110.876 26.6459C110.457 26.6459 110.153 26.7875 109.962 27.0706C109.777 27.3538 109.685 27.76 109.685 28.2894ZM118.258 26.6921H116.614V30.8008H115.46V26.6921H113.826V25.7965H118.258V26.6921ZM120.228 27.6246C120.228 27.8647 120.293 28.0463 120.422 28.1694C120.551 28.2925 120.733 28.354 120.967 28.354C121.25 28.354 121.508 28.3171 121.742 28.2432C121.982 28.1694 122.222 28.074 122.462 27.957V25.7965H123.626V30.8008H122.462V28.7234C122.222 28.8588 121.967 28.9757 121.696 29.0742C121.425 29.1727 121.108 29.2219 120.745 29.2219C120.228 29.2219 119.819 29.0896 119.517 28.8249C119.215 28.5541 119.065 28.1663 119.065 27.6616V25.7965H120.228V27.6246ZM127.131 25.7042C127.58 25.7042 127.965 25.7965 128.285 25.9812C128.611 26.1597 128.864 26.4182 129.042 26.7567C129.221 27.0891 129.31 27.4954 129.31 27.9755V28.5664H126.005C126.017 29.0219 126.143 29.3758 126.383 29.6282C126.623 29.8744 126.956 29.9975 127.38 29.9975C127.707 29.9975 127.996 29.9667 128.248 29.9052C128.507 29.8375 128.771 29.7421 129.042 29.619V30.5515C128.796 30.6684 128.541 30.7546 128.276 30.81C128.011 30.8654 127.694 30.8931 127.325 30.8931C126.839 30.8931 126.405 30.8008 126.023 30.6161C125.648 30.4253 125.352 30.1391 125.137 29.7575C124.927 29.3758 124.823 28.9019 124.823 28.3356C124.823 27.7631 124.918 27.283 125.109 26.8952C125.306 26.5013 125.577 26.2058 125.921 26.0089C126.266 25.8057 126.669 25.7042 127.131 25.7042ZM127.131 26.5628C126.823 26.5628 126.571 26.6644 126.374 26.8675C126.183 27.0645 126.069 27.36 126.032 27.7539H128.184C128.184 27.52 128.144 27.3138 128.064 27.1353C127.99 26.9568 127.876 26.8183 127.722 26.7198C127.568 26.6152 127.371 26.5628 127.131 26.5628ZM125.608 24.4854C125.608 24.2884 125.66 24.1469 125.765 24.0607C125.875 23.9745 126.008 23.9314 126.162 23.9314C126.309 23.9314 126.439 23.9745 126.549 24.0607C126.666 24.1469 126.725 24.2884 126.725 24.4854C126.725 24.6701 126.666 24.8086 126.549 24.9009C126.439 24.9871 126.309 25.0302 126.162 25.0302C126.008 25.0302 125.875 24.9871 125.765 24.9009C125.66 24.8086 125.608 24.6701 125.608 24.4854ZM127.399 24.4854C127.399 24.2884 127.451 24.1469 127.556 24.0607C127.667 23.9745 127.799 23.9314 127.953 23.9314C128.1 23.9314 128.23 23.9745 128.341 24.0607C128.457 24.1469 128.516 24.2884 128.516 24.4854C128.516 24.6701 128.457 24.8086 128.341 24.9009C128.23 24.9871 128.1 25.0302 127.953 25.0302C127.799 25.0302 127.667 24.9871 127.556 24.9009C127.451 24.8086 127.399 24.6701 127.399 24.4854ZM134.37 26.6921H132.727V30.8008H131.573V26.6921H129.938V25.7965H134.37V26.6921ZM136.488 25.7965V27.7816H138.695V25.7965H139.858V30.8008H138.695V28.6772H136.488V30.8008H135.325V25.7965H136.488ZM145.826 28.2894C145.826 28.708 145.77 29.0773 145.66 29.3974C145.549 29.7174 145.389 29.9914 145.18 30.2191C144.976 30.4407 144.724 30.61 144.422 30.7269C144.127 30.8377 143.798 30.8931 143.435 30.8931C143.09 30.8931 142.773 30.8377 142.484 30.7269C142.194 30.61 141.942 30.4407 141.726 30.2191C141.517 29.9914 141.354 29.7174 141.237 29.3974C141.12 29.0773 141.062 28.708 141.062 28.2894C141.062 27.7354 141.157 27.2676 141.348 26.886C141.539 26.4982 141.813 26.2058 142.17 26.0089C142.533 25.8057 142.961 25.7042 143.453 25.7042C143.921 25.7042 144.33 25.8057 144.681 26.0089C145.038 26.2058 145.318 26.4982 145.521 26.886C145.724 27.2676 145.826 27.7354 145.826 28.2894ZM142.253 28.2894C142.253 28.6403 142.293 28.9419 142.373 29.1942C142.459 29.4405 142.588 29.6282 142.761 29.7575C142.939 29.8867 143.167 29.9513 143.444 29.9513C143.727 29.9513 143.955 29.8867 144.127 29.7575C144.305 29.6282 144.435 29.4405 144.515 29.1942C144.595 28.9419 144.635 28.6403 144.635 28.2894C144.635 27.9324 144.592 27.6339 144.506 27.3938C144.426 27.1476 144.296 26.9629 144.118 26.8398C143.945 26.7106 143.721 26.6459 143.444 26.6459C143.025 26.6459 142.721 26.7875 142.53 27.0706C142.345 27.3538 142.253 27.76 142.253 28.2894ZM149.051 30.8931C148.577 30.8931 148.164 30.8039 147.813 30.6254C147.469 30.4407 147.201 30.1606 147.01 29.7852C146.825 29.4035 146.733 28.9172 146.733 28.3263C146.733 27.7108 146.835 27.2122 147.038 26.8306C147.247 26.4428 147.533 26.1597 147.896 25.9812C148.26 25.7965 148.675 25.7042 149.143 25.7042C149.457 25.7042 149.737 25.7349 149.983 25.7965C150.229 25.858 150.439 25.9319 150.611 26.0181L150.269 26.9322C150.079 26.8583 149.888 26.7967 149.697 26.7475C149.506 26.6921 149.321 26.6644 149.143 26.6644C148.866 26.6644 148.635 26.726 148.45 26.8491C148.272 26.9722 148.14 27.1568 148.053 27.403C147.967 27.6431 147.924 27.9478 147.924 28.3171C147.924 28.6741 147.967 28.9726 148.053 29.2127C148.146 29.4528 148.281 29.6343 148.46 29.7575C148.638 29.8744 148.86 29.9329 149.124 29.9329C149.408 29.9329 149.657 29.899 149.872 29.8313C150.088 29.7636 150.291 29.6713 150.482 29.5543V30.5607C150.291 30.6777 150.085 30.7608 149.863 30.81C149.648 30.8654 149.377 30.8931 149.051 30.8931ZM155.541 26.6921H153.898V30.8008H152.744V26.6921H151.109V25.7965H155.541V26.6921ZM158.813 27.7724C159.3 27.7724 159.7 27.8278 160.014 27.9386C160.334 28.0432 160.571 28.2032 160.725 28.4187C160.885 28.6341 160.965 28.9049 160.965 29.2312C160.965 29.5512 160.891 29.8282 160.743 30.0621C160.595 30.296 160.365 30.4776 160.051 30.6069C159.743 30.7362 159.337 30.8008 158.832 30.8008H156.496V25.7965H157.659V27.7724H158.813ZM159.801 29.2589C159.801 29.0188 159.712 28.8526 159.534 28.7603C159.355 28.668 159.097 28.6218 158.758 28.6218H157.659V29.9606H158.777C159.078 29.9606 159.324 29.9083 159.515 29.8036C159.706 29.6928 159.801 29.5112 159.801 29.2589ZM163.305 29.8313C163.249 30.0468 163.179 30.2807 163.092 30.533C163.006 30.7792 162.914 31.0255 162.815 31.2717C162.717 31.524 162.615 31.7641 162.511 31.9918H161.671C161.732 31.7518 161.791 31.4963 161.846 31.2255C161.901 30.9608 161.954 30.6992 162.003 30.4407C162.052 30.1822 162.092 29.9452 162.123 29.7298H163.24L163.305 29.8313ZM170.23 25.7965H171.514L169.473 28.1971L171.689 30.8008H170.359L168.236 28.2617V30.8008H167.072V25.7965H168.236V28.2248L170.23 25.7965ZM174.468 25.7042C175.114 25.7042 175.603 25.8457 175.936 26.1289C176.274 26.4059 176.444 26.8429 176.444 27.44V30.8008H175.622L175.391 30.1083H175.354C175.213 30.2868 175.065 30.4376 174.911 30.5607C174.763 30.6777 174.591 30.7608 174.394 30.81C174.203 30.8654 173.969 30.8931 173.692 30.8931C173.397 30.8931 173.129 30.8377 172.889 30.7269C172.655 30.6161 172.47 30.4468 172.335 30.2191C172.199 29.9852 172.132 29.6928 172.132 29.342C172.132 28.8249 172.319 28.4371 172.695 28.1786C173.077 27.9139 173.652 27.7693 174.422 27.7447L175.289 27.717V27.4677C175.289 27.1476 175.213 26.9198 175.059 26.7844C174.905 26.649 174.689 26.5813 174.412 26.5813C174.16 26.5813 173.917 26.6182 173.683 26.6921C173.449 26.766 173.221 26.8521 173 26.9506L172.63 26.1381C172.877 26.0089 173.157 25.9042 173.471 25.8242C173.791 25.7442 174.123 25.7042 174.468 25.7042ZM174.68 28.4556C174.169 28.4741 173.815 28.5633 173.618 28.7234C173.421 28.8772 173.323 29.0865 173.323 29.3512C173.323 29.5851 173.394 29.7544 173.535 29.859C173.677 29.9637 173.858 30.016 174.08 30.016C174.418 30.016 174.705 29.9206 174.939 29.7298C175.172 29.5328 175.289 29.2435 175.289 28.8619V28.4371L174.68 28.4556ZM182.112 25.7965V29.9144H182.841V32.5735H181.77V30.8008H178.363V32.5735H177.301V29.9144H177.717C177.963 29.5574 178.169 29.1573 178.335 28.7141C178.502 28.2648 178.631 27.7908 178.723 27.2922C178.815 26.7937 178.877 26.2951 178.908 25.7965H182.112ZM179.896 26.6829C179.859 27.0706 179.797 27.4584 179.711 27.8462C179.625 28.2279 179.517 28.5941 179.388 28.9449C179.259 29.2958 179.105 29.619 178.926 29.9144H180.957V26.6829H179.896ZM186.376 25.7042C186.96 25.7042 187.431 25.9227 187.788 26.3597C188.145 26.7906 188.324 27.4338 188.324 28.2894C188.324 28.8557 188.241 29.3327 188.074 29.7205C187.908 30.1083 187.677 30.4007 187.382 30.5977C187.086 30.7946 186.742 30.8931 186.348 30.8931C186.108 30.8931 185.895 30.8623 185.711 30.8008C185.526 30.7331 185.369 30.65 185.24 30.5515C185.111 30.4468 185 30.3361 184.907 30.2191H184.834C184.858 30.3299 184.877 30.4561 184.889 30.5977C184.901 30.7331 184.907 30.8623 184.907 30.9854V33.0167H183.744V25.7965H184.686L184.852 26.4613H184.907C185 26.3197 185.111 26.1935 185.24 26.0827C185.375 25.9658 185.535 25.8734 185.72 25.8057C185.911 25.738 186.129 25.7042 186.376 25.7042ZM186.043 26.6459C185.772 26.6459 185.554 26.7013 185.388 26.8121C185.221 26.9168 185.101 27.0799 185.028 27.3015C184.954 27.5231 184.914 27.8001 184.907 28.1324V28.2802C184.907 28.6372 184.941 28.9388 185.009 29.185C185.083 29.4312 185.203 29.619 185.369 29.7482C185.541 29.8775 185.772 29.9421 186.062 29.9421C186.308 29.9421 186.508 29.8744 186.662 29.739C186.822 29.6036 186.939 29.4128 187.013 29.1665C187.093 28.9142 187.133 28.6156 187.133 28.2709C187.133 27.7539 187.043 27.3538 186.865 27.0706C186.693 26.7875 186.419 26.6459 186.043 26.6459ZM189.524 30.8008V25.7965H190.687V27.7724H191.583C192.069 27.7724 192.466 27.8278 192.774 27.9386C193.088 28.0432 193.319 28.2032 193.466 28.4187C193.62 28.6341 193.697 28.9049 193.697 29.2312C193.697 29.5512 193.626 29.8282 193.485 30.0621C193.343 30.296 193.118 30.4776 192.811 30.6069C192.503 30.7362 192.1 30.8008 191.601 30.8008H189.524ZM191.527 29.9606C191.823 29.9606 192.066 29.9083 192.257 29.8036C192.448 29.6928 192.543 29.5112 192.543 29.2589C192.543 29.0188 192.454 28.8526 192.275 28.7603C192.103 28.668 191.85 28.6218 191.518 28.6218H190.687V29.9606H191.527ZM194.463 30.8008V25.7965H195.627V30.8008H194.463Z" fill="#66738F"/>
<path d="M5.11019 22.1289H1.00859C0.443712 22.1289 0 22.5726 0 23.1375V29.3235C0 29.8883 0.443712 30.3321 1.00859 30.3321H5.11019C5.67507 30.3321 6.11878 29.8883 6.11878 29.3235V23.1375C6.11878 22.5726 5.67507 22.1289 5.11019 22.1289Z" fill="#0C7DFF"/>
<path d="M6.11952 23.1375V29.3235C6.11952 29.8883 5.67581 30.3321 5.11093 30.3321H3.09375V22.1289H5.11093C5.67581 22.1289 6.11952 22.5726 6.11952 23.1375Z" fill="#0C7DFF"/>
<path d="M13.1797 18.0938H9.14531C8.58043 18.0938 8.13672 18.5375 8.13672 19.1023V29.3227C8.13672 29.8875 8.58043 30.3313 9.14531 30.3313H13.1797C13.7445 30.3313 14.1883 29.8875 14.1883 29.3227V19.1023C14.1883 18.5375 13.7445 18.0938 13.1797 18.0938Z" fill="#0C7DFF"/>
<path d="M14.1898 19.1023V29.3227C14.1898 29.8875 13.7461 30.3313 13.1812 30.3313H11.1641V18.0938H13.1812C13.7461 18.0938 14.1898 18.5375 14.1898 19.1023Z" fill="#0C7DFF"/>
<path d="M21.25 14.0605H17.2156C16.6507 14.0605 16.207 14.5043 16.207 15.0691V29.3239C16.207 29.8886 16.6507 30.3325 17.2156 30.3325H21.25C21.8149 30.3325 22.2586 29.8886 22.2586 29.3239V15.0691C22.2586 14.5043 21.8149 14.0605 21.25 14.0605Z" fill="#0C7DFF"/>
<path d="M22.2562 15.0691V29.3239C22.2562 29.8886 21.8125 30.3325 21.2476 30.3325H19.2305V14.0605H21.2476C21.8125 14.0605 22.2562 14.5043 22.2562 15.0691Z" fill="#0C7DFF"/>
<path d="M29.3836 10.0254H25.282C24.7171 10.0254 24.2734 10.4691 24.2734 11.034V29.3231C24.2734 29.8878 24.7171 30.3317 25.282 30.3317H29.3836C29.9485 30.3317 30.3922 29.8878 30.3922 29.3231V11.034C30.3922 10.4691 29.9485 10.0254 29.3836 10.0254Z" fill="#0C7DFF"/>
<path d="M30.3938 11.034V29.3231C30.3938 29.8878 29.9501 30.3317 29.3852 30.3317H27.3008V10.0254H29.3852C29.9501 10.0254 30.3938 10.4691 30.3938 11.034Z" fill="#0C7DFF"/>
<path d="M28.1574 2.43571C27.9732 2.13824 27.6491 1.95703 27.2995 1.95703H22.2565C21.699 1.95703 21.2479 2.40814 21.2479 2.96562C21.2479 3.5231 21.699 3.97421 22.2565 3.97421H23.2987L15.1964 8.33704L0.531224 16.1974C0.0407131 16.4624 -0.143456 17.074 0.120526 17.5636C0.386726 18.0584 1.00197 18.2355 1.48663 17.9742L15.1964 10.6283L24.9724 5.36432L24.3801 6.54887C24.1309 7.04725 24.3328 7.65301 24.8312 7.9022C25.3341 8.15186 25.9363 7.94604 26.1845 7.45109L28.2017 3.41673C28.3583 3.10447 28.3415 2.73317 28.1574 2.43571V2.43571Z" fill="#0C7DFF"/>
<path d="M24.379 6.54887C24.1298 7.04725 24.3317 7.65301 24.8301 7.9022C25.3331 8.15186 25.9352 7.94604 26.1834 7.45109L28.2006 3.41673C28.3572 3.10447 28.3405 2.73317 28.1563 2.43571C27.9721 2.13824 27.648 1.95703 27.2984 1.95703H22.2554C21.698 1.95703 21.2469 2.40814 21.2469 2.96562C21.2469 3.5231 21.698 3.97421 22.2554 3.97421H23.2977L15.1953 8.33704V10.6283L24.9713 5.36432L24.379 6.54887Z" fill="#0C7DFF"/>
</svg>
